<svg xmlns="http://www.w3.org/2000/svg" width="32" height="32">
    <path style="stroke:none;fill-rule:nonzero;fill:#fff;fill-opacity:1" d="M7.309 2.656a1.346 1.346 0 0 0-.989-.52 1.341 1.341 0 0 0-1.043.395l-2.066 2.07c-.969.965-1.324 2.337-.902 3.54a35.185 35.185 0 0 0 8.336 13.214 35.151 35.151 0 0 0 13.218 8.336c1.2.422 2.57.067 3.54-.898l2.066-2.07a1.33 1.33 0 0 0 .394-1.043 1.345 1.345 0 0 0-.52-.985l-4.613-3.59a1.357 1.357 0 0 0-1.16-.242l-4.379 1.094a3.493 3.493 0 0 1-3.316-.918l-4.91-4.914a3.495 3.495 0 0 1-.922-3.316l1.098-4.38a1.346 1.346 0 0 0-.246-1.16Zm-3.54-1.633a3.492 3.492 0 0 1 5.223.324l3.586 4.614c.66.844.89 1.945.633 2.988l-1.094 4.38c-.117.46.02.948.356 1.284l4.914 4.914c.336.336.824.473 1.289.356l4.375-1.094a3.487 3.487 0 0 1 2.988.633l4.613 3.586a3.49 3.49 0 0 1 .325 5.222l-2.067 2.067c-1.48 1.48-3.691 2.133-5.754 1.406a37.297 37.297 0 0 1-14.02-8.84 37.28 37.28 0 0 1-8.84-14.02C-.43 6.786.224 4.57 1.704 3.09Zm0 0"/>
</svg>
