<svg xmlns="http://www.w3.org/2000/svg" width="32" height="32">
    <path style="stroke:none;fill-rule:nonzero;fill:#fff
;fill-opacity:1" d="M16.023 0C7.195 0 .04 7.156.04 15.984c0 6.77 4.211 12.555 10.156 14.883-.14-1.265-.265-3.207.055-4.586.293-1.25 1.875-7.945 1.875-7.945s-.477-.957-.477-2.375c0-2.215 1.29-3.879 2.891-3.879 1.363 0 2.024 1.023 2.024 2.25 0 1.371-.872 3.422-1.325 5.324-.379 1.59.801 2.887 2.367 2.887 2.836 0 5.024-2.996 5.024-7.316 0-3.817-2.75-6.493-6.676-6.493-4.547 0-7.215 3.414-7.215 6.93 0 1.379.528 2.86 1.188 3.656.133.16.148.301.113.461-.121.5-.39 1.598-.445 1.817-.07.3-.23.359-.535.218-1.993-.918-3.243-3.836-3.243-6.195 0-5.031 3.664-9.668 10.559-9.668 5.543 0 9.855 3.957 9.855 9.23 0 5.516-3.476 9.95-8.308 9.95-1.621 0-3.14-.84-3.68-1.84l-1 3.8c-.355 1.391-1.336 3.134-1.996 4.192 1.496.461 3.074.715 4.734.715 8.81 0 15.98-7.152 15.98-15.984 0-8.828-7.17-15.98-15.98-15.98Zm0 0"/>
</svg>
